<svg width="35" height="35" viewBox="0 0 35 35" fill="none" xmlns="http://www.w3.org/2000/svg">
<g opacity="0.45">
<path d="M34.284 17.2508C34.2422 19.5497 34.2192 21.8496 34.1555 24.1484C34.0991 26.1934 33.7378 28.1733 32.6413 29.9433C31.2471 32.1897 29.2149 33.5653 26.6427 34.0059C25.0762 34.2746 23.4628 34.3669 21.8691 34.3921C18.4803 34.4445 15.0894 34.4267 11.7006 34.3868C9.90337 34.3658 8.10088 34.3008 6.37462 33.6954C3.07458 32.5412 1.0768 30.2004 0.422019 26.7957C0.120211 25.2292 0.0575543 23.6018 0.0324907 22.0007C-0.0197251 18.5949 -0.000927401 15.188 0.0324907 11.7812C0.053377 9.96289 0.116025 8.13828 0.725905 6.39026C1.88196 3.0768 4.21393 1.07488 7.60378 0.421207C9.15146 0.123226 10.7576 0.0571251 12.3387 0.0329929C15.74 -0.0194685 19.1435 -0.00163167 22.5448 0.0329929C24.3421 0.0529282 26.1446 0.117981 27.8708 0.723385C31.1709 1.87754 33.1697 4.21731 33.8234 7.62311C34.1242 9.18856 34.1534 10.8159 34.2161 12.4181C34.2787 14.0203 34.2297 15.6361 34.2297 17.2445L34.284 17.2508ZM3.03072 17.1732H3.08607C3.08607 17.8268 3.06832 18.4805 3.08607 19.1342C3.15291 21.2547 3.15396 23.3804 3.32836 25.4925C3.56229 28.3506 5.33031 30.3777 8.13221 30.9181C9.65378 31.2108 11.2338 31.2601 12.7898 31.2895C15.6784 31.3451 18.5681 31.3262 21.4577 31.2958C22.7547 31.2811 24.0559 31.2108 25.3467 31.0859C28.2154 30.8006 30.2143 29.0788 30.7678 26.2333C31.0602 24.7297 31.1061 23.1664 31.1343 21.6272C31.1886 18.6893 31.1802 15.7452 31.1343 12.8052C31.1134 11.3657 31.057 9.91147 30.8367 8.49082C30.4492 5.98631 29.0206 4.28446 26.555 3.59827C25.7605 3.37855 24.9424 3.25665 24.1186 3.23524C20.994 3.16284 17.8684 3.11667 14.7438 3.13031C12.7961 3.13766 10.8443 3.19851 8.90395 3.358C7.1777 3.49964 5.67805 4.21941 4.58569 5.64007C3.68027 6.81835 3.30956 8.19704 3.24794 9.64707C3.13829 12.1495 3.0986 14.6624 3.03072 17.1732Z" fill="black"/>
<path d="M25.9144 17.241C25.9157 18.3994 25.6896 19.5467 25.2487 20.6171C24.8079 21.6875 24.1611 22.66 23.3455 23.4788C22.5299 24.2975 21.5614 24.9465 20.4957 25.3885C19.4299 25.8305 18.2878 26.0568 17.1348 26.0545C12.331 26.0618 8.3876 22.1398 8.31554 17.4183C8.23826 12.3893 12.284 8.35611 17.1098 8.37605C22.017 8.39284 25.9102 12.2949 25.9144 17.241ZM17.1421 11.4839C15.6416 11.4994 14.2075 12.108 13.1504 13.1779C12.0932 14.2479 11.498 15.6932 11.4936 17.2008C11.4892 18.7084 12.076 20.1572 13.1269 21.2333C14.1778 22.3095 15.6083 22.9266 17.1087 22.9509C20.2333 22.9645 22.8201 20.3792 22.8305 17.2336C22.8286 15.7143 22.2295 14.2573 21.1635 13.1796C20.0976 12.102 18.6511 11.491 17.139 11.4797L17.1421 11.4839Z" fill="black"/>
<path d="M26.2929 5.9643C27.4489 5.97059 28.3314 6.88657 28.3178 8.06275C28.3112 8.60804 28.0906 9.12866 27.704 9.51141C27.3174 9.89415 26.796 10.1081 26.2532 10.1066C25.1128 10.093 24.1719 9.13401 24.1917 8.00819C24.195 7.73503 24.252 7.46523 24.3596 7.21434C24.4672 6.96345 24.6231 6.73645 24.8185 6.54643C25.0138 6.35642 25.2447 6.20714 25.4977 6.10723C25.7508 6.00731 26.021 5.95874 26.2929 5.9643Z" fill="black"/>
</g>
</svg>