<svg width="33" height="33" viewBox="0 0 33 33" fill="none" xmlns="http://www.w3.org/2000/svg">
<path opacity="0.45" d="M32.6554 3.91867V28.8859C32.6018 28.9772 32.5582 29.0741 32.5253 29.1748C32.1143 31.1122 30.9435 32.2807 29.0207 32.6981C28.9204 32.7309 28.824 32.7747 28.7332 32.8288H21.3239C21.3305 29.0891 21.3425 25.3495 21.337 21.6098C21.337 21.2023 21.5064 21.1288 21.8606 21.1342C22.9538 21.1507 24.0393 21.1342 25.128 21.1419C25.6604 21.1419 25.9894 20.9223 26.055 20.3644C26.1938 19.1892 26.3578 18.0162 26.4715 16.8389C26.5436 16.0898 26.2605 15.8252 25.4877 15.823C24.2721 15.823 23.0554 15.8087 21.8399 15.8295C21.4474 15.8361 21.2802 15.7197 21.2933 15.309C21.3228 14.27 21.302 13.2299 21.3392 12.1909C21.3796 11.074 21.9557 10.471 23.0554 10.4018C23.8512 10.3502 24.6514 10.381 25.4483 10.3403C26.0944 10.3074 26.3491 10.0108 26.3545 9.36066C26.3611 8.43078 26.3611 7.50017 26.3545 6.56883C26.3491 5.90986 26.0823 5.63199 25.4363 5.6287C24.2568 5.6287 23.0762 5.61002 21.8967 5.63968C18.8064 5.71656 16.4135 7.96474 16.1796 11.0696C16.0703 12.4666 16.0965 13.8746 16.0932 15.2782C16.0932 15.7076 15.9631 15.8504 15.5324 15.8273C14.7891 15.7944 14.0436 15.8142 13.2991 15.8208C12.6214 15.8262 12.3569 16.0997 12.3558 16.7927C12.3558 17.9053 12.3558 19.019 12.3558 20.1315C12.3558 20.8465 12.64 21.1288 13.3396 21.1353C14.0108 21.1419 14.6831 21.1353 15.3542 21.1353C16.0998 21.1353 16.1031 21.1353 16.102 21.8767C16.0976 25.5252 16.0928 29.174 16.0877 32.8233H3.89049C3.76138 32.7663 3.6284 32.7186 3.49257 32.6805C1.50415 32.2642 0.0142108 30.5125 0.0109314 28.4785C-0.0036438 20.4163 -0.0036438 12.3538 0.0109314 4.29099C0.0174903 1.97801 1.96546 0.0219657 4.26543 0.015376C12.2869 -0.00512532 20.3084 -0.00512532 28.3298 0.015376C30.351 0.015376 32.1099 1.52771 32.5122 3.5145C32.5499 3.65259 32.5978 3.78768 32.6554 3.91867Z" fill="black"/>
</svg>