<svg width="33" height="33" viewBox="0 0 33 33" fill="none" xmlns="http://www.w3.org/2000/svg">
<g opacity="0.45" clip-path="url(#clip0_1_302)">
<g clip-path="url(#clip1_1_302)">
<path d="M30.525 0H2.475C1.81859 0 1.18906 0.260759 0.724911 0.724911C0.260759 1.18906 0 1.81859 0 2.475V30.525C0 31.1813 0.260759 31.8109 0.724911 32.2751C1.18906 32.7393 1.81859 33 2.475 33H30.525C31.1813 33 31.8109 32.7393 32.2751 32.2751C32.7393 31.8109 33 31.1813 33 30.525V2.475C33 1.81859 32.7393 1.18906 32.2751 0.724911C31.8109 0.260759 31.1813 0 30.525 0ZM9.9 28.05H4.95V13.2H9.9V28.05ZM7.425 10.3125C6.85769 10.2963 6.30777 10.1133 5.8439 9.78628C5.38003 9.4593 5.02278 9.00288 4.81685 8.47403C4.61089 7.94519 4.56535 7.36738 4.68591 6.8128C4.80645 6.25823 5.08778 5.75146 5.49468 5.35586C5.90161 4.96025 6.41608 4.69332 6.97383 4.58843C7.53159 4.48353 8.10788 4.54533 8.63071 4.7661C9.15354 4.98685 9.59974 5.3568 9.91351 5.82969C10.2273 6.3026 10.3948 6.85747 10.395 7.425C10.382 8.20107 10.0623 8.94043 9.50574 9.48151C8.94921 10.0226 8.20114 10.3213 7.425 10.3125ZM28.05 28.05H23.1V20.229C23.1 17.886 22.11 17.0445 20.823 17.0445C20.4457 17.0696 20.077 17.169 19.7382 17.3371C19.3994 17.5051 19.0971 17.7384 18.8487 18.0235C18.6005 18.3087 18.4107 18.6402 18.2909 18.9988C18.171 19.3574 18.1231 19.7362 18.15 20.1135C18.1418 20.1903 18.1418 20.2677 18.15 20.3445V28.05H13.2V13.2H17.985V15.345C18.4677 14.6108 19.1308 14.0127 19.9109 13.6083C20.691 13.2038 21.5618 13.0064 22.44 13.035C24.9975 13.035 27.984 14.454 27.984 19.074L28.05 28.05Z" fill="#1C1C1C"/>
</g>
</g>
<defs>
<clipPath id="clip0_1_302">
<rect width="33" height="33" fill="white"/>
</clipPath>
<clipPath id="clip1_1_302">
<rect width="33" height="33" fill="white"/>
</clipPath>
</defs>
</svg>